<svg xmlns="http://www.w3.org/2000/svg" viewBox="0 0 512 512" fill="#ace5a0"><path d="M486.831,177.24c-11.732-30.841-31.45-56.413-56.054-76.318c-23.442-18.976-51.316-32.878-81.306-41.8 c-11.186-18.32-26.368-32.753-43.689-42.744C287.181,5.644,266.121,0,244.795,0c-15.542,0-31.231,3.006-46.14,9.234 c-14.901,6.221-29.022,15.667-41.386,28.398c-6.112,6.284-11.272,13.372-15.557,20.998c-3.466,6.19-6.346,12.746-8.704,19.569 c-22.028,11.162-40.472,24.182-55.725,38.53c-24.402,22.934-40.567,49.239-50.496,76.271 c-9.937,27.047-13.715,54.797-13.715,81.048c0,33.097,5.98,63.844,13.504,88.3c9.648,31.316,19.467,66.1,26.867,93.014 c3.7,13.457,6.791,24.948,8.961,33.081c1.078,4.059,1.936,7.283,2.514,9.484c0.296,1.101,0.515,1.951,0.671,2.521 c0.14,0.57,0.218,0.858,0.218,0.858l2.248,8.586h104.005V498.41v-0.008c0-0.64,0.094-32.636,6.167-74.795 c0.506-3.497,1.607-6.284,3.13-8.696c1.147-1.81,2.56-3.402,4.238-4.824c2.498-2.123,5.621-3.848,9.149-5.019 c3.512-1.171,7.415-1.787,11.302-1.787c3.435,0,6.854,0.476,9.992,1.389c2.342,0.687,4.527,1.608,6.463,2.732 c2.904,1.686,5.238,3.778,6.963,6.237c1.718,2.482,2.904,5.347,3.388,9.094c0.304,2.404,0.594,6.197,0.812,10.639 c0.336,6.69,0.547,14.925,0.664,23.23c0.117,8.305,0.164,16.681,0.164,23.722c0,5.238-0.023,9.734-0.046,12.918 c-0.008,1.593-0.016,2.858-0.031,3.724c0,0.858-0.008,1.319-0.008,1.319l-0.124,11.607h107.041l1.264-10.061 c0,0,0.179-1.429,0.515-4.06c2.326-18.437,12.193-95.941,20.771-153.15c0.57-3.817,1.694-6.916,3.115-9.492 c2.139-3.849,5.011-6.565,8.165-8.407c3.138-1.826,6.572-2.677,9.453-2.67c1.538,0,2.896,0.234,3.98,0.601 c0.82,0.273,1.476,0.609,1.991,0.976c0.78,0.555,1.272,1.109,1.686,1.92c0.406,0.812,0.773,1.967,0.781,3.903 c0,1.359-0.203,3.107-0.765,5.238v-0.008c-5.761,21.622-8.587,44.517-8.587,66.81c0,15.526,1.374,30.763,4.13,45.094 c2.771,14.332,6.908,27.773,12.599,39.7h-0.008c1.264,2.638,2.514,5.261,3.849,7.814c1.007,1.912,2.052,3.786,3.224,5.612 c0.874,1.366,1.826,2.709,2.919,4.028c1.639,1.959,3.591,3.903,6.253,5.518c1.327,0.804,2.834,1.499,4.472,1.983 c1.648,0.492,3.427,0.757,5.199,0.757c2.326,0,4.614-0.452,6.666-1.202c2.061-0.749,3.918-1.772,5.636-2.95v-0.008 c2.755-1.897,5.479-3.966,8.165-6.026c4.004-3.099,7.923-6.206,11.318-8.61c1.686-1.202,3.232-2.225,4.512-2.966 c1.264-0.75,2.28-1.194,2.654-1.312c1.373-0.468,2.826-1.155,4.215-2.154c1.03-0.75,2.022-1.679,2.857-2.724 c1.257-1.569,2.124-3.372,2.607-5.051c0.492-1.678,0.64-3.224,0.64-4.582c-0.008-2.022-0.312-3.677-0.671-5.184 c-0.656-2.614-1.538-4.832-2.467-7.048c-1.389-3.302-2.935-6.549-4.215-9.695c-1.28-3.138-2.28-6.151-2.717-8.602 c-1.624-9.086-2.318-17.087-2.318-24.463c0.008-10.343,1.342-19.5,3.567-28.82c1.686-6.994,3.871-14.066,6.4-21.668 c3.763-11.397,8.26-23.948,12.522-38.889c4.262-14.948,8.258-32.269,11.076-53.212c1.452-10.779,2.154-21.231,2.154-31.348 C498.937,220.624,494.659,197.784,486.831,177.24z M474.021,273.766c-2.373,17.579-5.581,32.262-9.086,45.212 c-5.246,19.413-11.194,34.954-16.08,50.55c-2.436,7.79-4.59,15.596-6.135,23.808c-1.546,8.212-2.475,16.814-2.475,26.087 c0,8.82,0.835,18.234,2.678,28.515c0.679,3.754,1.764,7.197,2.943,10.358c1.764,4.714,3.754,8.867,5.112,12.036 c0.016,0.031,0.031,0.062,0.047,0.094c-1.772,1.031-3.49,2.155-5.199,3.341c-3.607,2.506-7.182,5.3-10.632,7.978 c-2.841,2.201-5.574,4.308-8.04,6.088c-0.671-0.984-1.46-2.326-2.303-3.919c-1.132-2.123-2.364-4.691-3.708-7.509 c-4.668-9.773-8.321-21.419-10.772-34.158c-2.45-12.748-3.715-26.587-3.715-40.755c0-20.35,2.608-41.378,7.806-60.893l0.008-0.008 c1.007-3.81,1.538-7.533,1.538-11.139c0-4.527-0.85-8.906-2.568-12.825c-1.288-2.934-3.044-5.597-5.144-7.852 c-3.138-3.388-6.994-5.846-11.054-7.407c-4.059-1.562-8.344-2.28-12.637-2.28c-4.762,0-9.554,0.874-14.183,2.576 c-6.932,2.552-13.536,7.009-18.781,13.371c-5.254,6.346-9.055,14.589-10.476,24.182c-4.94,32.933-10.28,72.345-14.386,103.552 c-2.467,18.758-4.488,34.541-5.706,44.158H257.44c0-2.022,0.008-4.231,0.008-6.604c0-9.492-0.062-21.396-0.32-32.472 c-0.126-5.534-0.297-10.865-0.532-15.627c-0.234-4.769-0.531-8.914-0.96-12.349c-0.804-6.478-2.95-12.442-6.128-17.524 c-2.372-3.817-5.292-7.142-8.57-9.928c-4.902-4.193-10.562-7.205-16.494-9.18c-5.941-1.974-12.17-2.927-18.399-2.927 c-5.573,0-11.162,0.765-16.548,2.342c-8.071,2.357-15.783,6.557-21.965,12.903c-3.076,3.169-5.753,6.877-7.821,11.046 c-2.062,4.168-3.513,8.797-4.216,13.738c-4.16,28.929-5.612,53.118-6.12,66.584H85.759c-2.154-8.126-5.729-21.474-10.178-37.655 c-7.431-27.055-17.298-61.994-27.055-93.686c-6.955-22.536-12.506-51.23-12.49-81.54c0-16.033,1.538-32.519,5.183-48.833 c5.48-24.494,15.644-48.56,32.535-70.534c14.379-18.671,33.659-35.891,59.449-50.511c-1.342,8.626-1.99,17.508-1.998,26.493 c0.008,19.007,2.889,38.506,8.322,57.162c8.164,27.96,22.036,54.047,40.996,73.484c9.492,9.711,20.279,17.743,32.261,23.363 c11.974,5.62,25.158,8.789,39.193,8.781c11.162,0,22.84-1.998,34.869-6.221l-4.926-14.019c-10.576,3.715-20.545,5.378-29.943,5.378 c-15.729-0.007-29.943-4.652-42.776-12.832c-9.601-6.144-18.382-14.308-26.134-23.988c-11.631-14.511-20.935-32.418-27.274-51.651 c-6.338-19.234-9.726-39.771-9.726-59.457c0-12.278,1.343-24.19,4.028-35.282l1.858-0.898l1.452-4.8 c2.17-7.126,4.948-13.778,8.337-19.819c3.395-6.042,7.384-11.475,11.997-16.229c10.25-10.545,21.709-18.18,33.761-23.206 c12.052-5.035,24.705-7.462,37.296-7.462c17.266,0,34.392,4.574,49.512,13.301c15.12,8.735,28.226,21.56,37.554,38.218l2.341,4.16 l4.598,1.288c19.382,5.402,37.694,13.013,54.196,22.715c24.776,14.574,45.461,33.807,59.964,57.513 c14.503,23.722,22.98,51.956,23.004,85.325C475.965,254.541,475.333,263.962,474.021,273.766z"></path></svg>